<?xml version="1.0" encoding="UTF-8" standalone="no"?>
<!-- Uploaded to: SVG Repo, www.svgrepo.com, Generator: SVG Repo Mixer Tools -->

<svg
   width="800px"
   height="800px"
   viewBox="0 0 24 24"
   fill="none"
   version="1.1"
   id="svg1"
   sodipodi:docname="icon.svg"
   inkscape:version="1.3 (0e150ed, 2023-07-21)"
   inkscape:export-filename="icon_16.png"
   inkscape:export-xdpi="1.92"
   inkscape:export-ydpi="1.92"
   xmlns:inkscape="http://www.inkscape.org/namespaces/inkscape"
   xmlns:sodipodi="http://sodipodi.sourceforge.net/DTD/sodipodi-0.dtd"
   xmlns="http://www.w3.org/2000/svg"
   xmlns:svg="http://www.w3.org/2000/svg">
  <defs
     id="defs1">
    <linearGradient
       id="swatch9"
       inkscape:swatch="solid">
      <stop
         style="stop-color:#000000;stop-opacity:1;"
         offset="0"
         id="stop9" />
    </linearGradient>
  </defs>
  <sodipodi:namedview
     id="namedview1"
     pagecolor="#ffffff"
     bordercolor="#000000"
     borderopacity="0.25"
     inkscape:showpageshadow="2"
     inkscape:pageopacity="0.0"
     inkscape:pagecheckerboard="0"
     inkscape:deskcolor="#d1d1d1"
     inkscape:zoom="0.56501782"
     inkscape:cx="220.34703"
     inkscape:cy="330.96301"
     inkscape:window-width="1440"
     inkscape:window-height="847"
     inkscape:window-x="0"
     inkscape:window-y="25"
     inkscape:window-maximized="1"
     inkscape:current-layer="svg1" />
  <path
     fill-rule="evenodd"
     clip-rule="evenodd"
     d="m 5.3925975,2.3803395 c -1.2448313,0 -2.8897421,1.3794457 -2.881622,2.3984601 l 0.096565,12.1177014 c 0.663054,-0.313916 1.8676934,-0.985667 2.6884944,-0.967922 L 21.749689,16.047147 V 2.3803395 Z M 21.749689,17.338935 5.296034,17.259886 c -1.2448099,-0.006 -2.7367767,1.260889 -2.7367767,2.279888 0,1.019 1.3953869,2.039805 2.6402131,2.042743 l 16.5985016,0.07904 z M 0.83639874,19.539774 V 4.7787996 c 0,-2.0380601 2.01826956,-3.6902437 4.50791706,-3.6902437 H 22.249005 l 1.126979,0.9225609 V 23.230018 H 5.3443158 c -2.4896475,0 -4.50791706,-1.652122 -4.50791706,-3.690244 z"
     fill="#080341"
     id="path1"
     style="fill:#492929;fill-opacity:1;stroke-width:0.156335;stroke-dasharray:none"
     sodipodi:nodetypes="sscsccscsssccssscccss" />
  <path
     sodipodi:type="star"
     style="fill:none;fill-opacity:1;stroke:#c4b800;stroke-width:0.14547039;stroke-dasharray:none;stroke-opacity:1"
     id="path3-0"
     inkscape:flatsided="true"
     sodipodi:sides="6"
     sodipodi:cx="11.18644"
     sodipodi:cy="8.3389826"
     sodipodi:r1="0.92606008"
     sodipodi:r2="0.8308543"
     sodipodi:arg1="0.53819603"
     sodipodi:arg2="1.0617948"
     inkscape:rounded="0"
     inkscape:randomized="0"
     d="M 11.981588,8.8136698 11.172923,9.264944 10.377776,8.7902568 10.391293,7.8642954 11.199958,7.4130212 11.995105,7.8877083 Z"
     transform="matrix(1.8942011,0,0,1.3184537,-10.40817,0.28687108)" />
  <path
     sodipodi:type="star"
     style="fill:none;fill-opacity:1;stroke:#c4b800;stroke-width:0.14547039;stroke-dasharray:none;stroke-opacity:1"
     id="path3-0-53"
     inkscape:flatsided="true"
     sodipodi:sides="6"
     sodipodi:cx="11.18644"
     sodipodi:cy="8.3389826"
     sodipodi:r1="0.92606008"
     sodipodi:r2="0.8308543"
     sodipodi:arg1="0.53819603"
     sodipodi:arg2="1.0617948"
     inkscape:rounded="0"
     inkscape:randomized="0"
     d="M 11.981588,8.8136698 11.172923,9.264944 10.377776,8.7902568 10.391293,7.8642954 11.199958,7.4130212 11.995105,7.8877083 Z"
     transform="matrix(1.8942011,0,0,1.3184537,-4.3705608,0.3449068)" />
  <path
     sodipodi:type="star"
     style="fill:none;fill-opacity:1;stroke:#c4b800;stroke-width:0.14547039;stroke-dasharray:none;stroke-opacity:1"
     id="path3-0-65"
     inkscape:flatsided="true"
     sodipodi:sides="6"
     sodipodi:cx="11.18644"
     sodipodi:cy="8.3389826"
     sodipodi:r1="0.92606008"
     sodipodi:r2="0.8308543"
     sodipodi:arg1="0.53819603"
     sodipodi:arg2="1.0617948"
     inkscape:rounded="0"
     inkscape:randomized="0"
     d="M 11.981588,8.8136698 11.172923,9.264944 10.377776,8.7902568 10.391293,7.8642954 11.199958,7.4130212 11.995105,7.8877083 Z"
     transform="matrix(1.8942011,0,0,1.3184537,-11.966451,2.1126058)" />
  <path
     sodipodi:type="star"
     style="fill:none;fill-opacity:1;stroke:#c4b800;stroke-width:0.14547039;stroke-dasharray:none;stroke-opacity:1"
     id="path3-0-0"
     inkscape:flatsided="true"
     sodipodi:sides="6"
     sodipodi:cx="11.18644"
     sodipodi:cy="8.3389826"
     sodipodi:r1="0.92606008"
     sodipodi:r2="0.8308543"
     sodipodi:arg1="0.53819603"
     sodipodi:arg2="1.0617948"
     inkscape:rounded="0"
     inkscape:randomized="0"
     d="M 11.981588,8.8136698 11.172923,9.264944 10.377776,8.7902568 10.391293,7.8642954 11.199958,7.4130212 11.995105,7.8877083 Z"
     transform="matrix(1.8942011,0,0,1.3184537,-11.845356,-5.1777677)" />
  <path
     sodipodi:type="star"
     style="fill:none;fill-opacity:1;stroke:#c4b800;stroke-width:0.14547039;stroke-dasharray:none;stroke-opacity:1"
     id="path3-0-7"
     inkscape:flatsided="true"
     sodipodi:sides="6"
     sodipodi:cx="11.18644"
     sodipodi:cy="8.3389826"
     sodipodi:r1="0.92606008"
     sodipodi:r2="0.8308543"
     sodipodi:arg1="0.53819603"
     sodipodi:arg2="1.0617948"
     inkscape:rounded="0"
     inkscape:randomized="0"
     d="M 11.981588,8.8136698 11.172923,9.264944 10.377776,8.7902568 10.391293,7.8642954 11.199958,7.4130212 11.995105,7.8877083 Z"
     transform="matrix(1.8942011,0,0,1.3184537,-8.7758178,-5.1470825)" />
  <path
     sodipodi:type="star"
     style="fill:none;fill-opacity:1;stroke:#c4b800;stroke-width:0.14547039;stroke-dasharray:none;stroke-opacity:1"
     id="path3-0-02"
     inkscape:flatsided="true"
     sodipodi:sides="6"
     sodipodi:cx="11.18644"
     sodipodi:cy="8.3389826"
     sodipodi:r1="0.92606008"
     sodipodi:r2="0.8308543"
     sodipodi:arg1="0.53819603"
     sodipodi:arg2="1.0617948"
     inkscape:rounded="0"
     inkscape:randomized="0"
     d="M 11.981588,8.8136698 11.172923,9.264944 10.377776,8.7902568 10.391293,7.8642954 11.199958,7.4130212 11.995105,7.8877083 Z"
     transform="matrix(1.8942011,0,0,1.3184537,-7.4712719,0.30877772)" />
  <path
     sodipodi:type="star"
     style="fill:none;fill-opacity:1;stroke:#c4b800;stroke-width:0.14547039;stroke-dasharray:none;stroke-opacity:1"
     id="path3-0-70"
     inkscape:flatsided="true"
     sodipodi:sides="6"
     sodipodi:cx="11.18644"
     sodipodi:cy="8.3389826"
     sodipodi:r1="0.92606008"
     sodipodi:r2="0.8308543"
     sodipodi:arg1="0.53819603"
     sodipodi:arg2="1.0617948"
     inkscape:rounded="0"
     inkscape:randomized="0"
     d="M 11.981588,8.8136698 11.172923,9.264944 10.377776,8.7902568 10.391293,7.8642954 11.199958,7.4130212 11.995105,7.8877083 Z"
     transform="matrix(1.8942011,0,0,1.3184537,-13.457946,0.28582514)" />
  <path
     sodipodi:type="star"
     style="fill:none;fill-opacity:1;stroke:#c4b800;stroke-width:0.14547039;stroke-dasharray:none;stroke-opacity:1"
     id="path3-0-6"
     inkscape:flatsided="true"
     sodipodi:sides="6"
     sodipodi:cx="11.18644"
     sodipodi:cy="8.3389826"
     sodipodi:r1="0.92606008"
     sodipodi:r2="0.8308543"
     sodipodi:arg1="0.53819603"
     sodipodi:arg2="1.0617948"
     inkscape:rounded="0"
     inkscape:randomized="0"
     d="M 11.981588,8.8136698 11.172923,9.264944 10.377776,8.7902568 10.391293,7.8642954 11.199958,7.4130212 11.995105,7.8877083 Z"
     transform="matrix(1.8942011,0,0,1.3184537,-10.336504,-3.3934476)" />
  <path
     sodipodi:type="star"
     style="fill:none;fill-opacity:1;stroke:#c4b800;stroke-width:0.14547039;stroke-dasharray:none;stroke-opacity:1"
     id="path3-0-2"
     inkscape:flatsided="true"
     sodipodi:sides="6"
     sodipodi:cx="11.18644"
     sodipodi:cy="8.3389826"
     sodipodi:r1="0.92606008"
     sodipodi:r2="0.8308543"
     sodipodi:arg1="0.53819603"
     sodipodi:arg2="1.0617948"
     inkscape:rounded="0"
     inkscape:randomized="0"
     d="M 11.981588,8.8136698 11.172923,9.264944 10.377776,8.7902568 10.391293,7.8642954 11.199958,7.4130212 11.995105,7.8877083 Z"
     transform="matrix(1.8942011,0,0,1.3184537,-5.7330074,-5.1402076)" />
  <path
     sodipodi:type="star"
     style="fill:none;fill-opacity:1;stroke:#c4b800;stroke-width:0.14547039;stroke-dasharray:none;stroke-opacity:1"
     id="path3-0-9"
     inkscape:flatsided="true"
     sodipodi:sides="6"
     sodipodi:cx="11.18644"
     sodipodi:cy="8.3389826"
     sodipodi:r1="0.92606008"
     sodipodi:r2="0.8308543"
     sodipodi:arg1="0.53819603"
     sodipodi:arg2="1.0617948"
     inkscape:rounded="0"
     inkscape:randomized="0"
     d="M 11.981588,8.8136698 11.172923,9.264944 10.377776,8.7902568 10.391293,7.8642954 11.199958,7.4130212 11.995105,7.8877083 Z"
     transform="matrix(1.8942011,0,0,1.3184537,-7.2720891,-3.3352996)" />
  <path
     sodipodi:type="star"
     style="fill:none;fill-opacity:1;stroke:#c4b800;stroke-width:0.14547039;stroke-dasharray:none;stroke-opacity:1"
     id="path3-0-72"
     inkscape:flatsided="true"
     sodipodi:sides="6"
     sodipodi:cx="11.18644"
     sodipodi:cy="8.3389826"
     sodipodi:r1="0.92606008"
     sodipodi:r2="0.8308543"
     sodipodi:arg1="0.53819603"
     sodipodi:arg2="1.0617948"
     inkscape:rounded="0"
     inkscape:randomized="0"
     d="M 11.981588,8.8136698 11.172923,9.264944 10.377776,8.7902568 10.391293,7.8642954 11.199958,7.4130212 11.995105,7.8877083 Z"
     transform="matrix(1.8942011,0,0,1.3184537,-13.366921,-3.4136054)" />
  <path
     sodipodi:type="star"
     style="fill:none;fill-opacity:1;stroke:#c4b800;stroke-width:0.14547039;stroke-dasharray:none;stroke-opacity:1"
     id="path3-0-5"
     inkscape:flatsided="true"
     sodipodi:sides="6"
     sodipodi:cx="11.18644"
     sodipodi:cy="8.3389826"
     sodipodi:r1="0.92606008"
     sodipodi:r2="0.8308543"
     sodipodi:arg1="0.53819603"
     sodipodi:arg2="1.0617948"
     inkscape:rounded="0"
     inkscape:randomized="0"
     d="M 11.981588,8.8136698 11.172923,9.264944 10.377776,8.7902568 10.391293,7.8642954 11.199958,7.4130212 11.995105,7.8877083 Z"
     transform="matrix(1.8942011,0,0,1.3184537,-8.8823694,-1.5311784)" />
  <path
     sodipodi:type="star"
     style="fill:none;fill-opacity:1;stroke:#c4b800;stroke-width:0.14547039;stroke-dasharray:none;stroke-opacity:1"
     id="path3-0-71"
     inkscape:flatsided="true"
     sodipodi:sides="6"
     sodipodi:cx="11.18644"
     sodipodi:cy="8.3389826"
     sodipodi:r1="0.92606008"
     sodipodi:r2="0.8308543"
     sodipodi:arg1="0.53819603"
     sodipodi:arg2="1.0617948"
     inkscape:rounded="0"
     inkscape:randomized="0"
     d="M 11.981588,8.8136698 11.172923,9.264944 10.377776,8.7902568 10.391293,7.8642954 11.199958,7.4130212 11.995105,7.8877083 Z"
     transform="matrix(1.8942011,0,0,1.3184537,-11.861271,-1.5477201)" />
  <path
     sodipodi:type="star"
     style="fill:none;fill-opacity:1;stroke:#c4b800;stroke-width:0.14547039;stroke-dasharray:none;stroke-opacity:1"
     id="path3-0-8"
     inkscape:flatsided="true"
     sodipodi:sides="6"
     sodipodi:cx="11.18644"
     sodipodi:cy="8.3389826"
     sodipodi:r1="0.92606008"
     sodipodi:r2="0.8308543"
     sodipodi:arg1="0.53819603"
     sodipodi:arg2="1.0617948"
     inkscape:rounded="0"
     inkscape:randomized="0"
     d="M 11.981588,8.8136698 11.172923,9.264944 10.377776,8.7902568 10.391293,7.8642954 11.199958,7.4130212 11.995105,7.8877083 Z"
     transform="matrix(1.8942011,0,0,1.3184537,-5.8309104,-1.4867735)" />
  <path
     sodipodi:type="star"
     style="fill:none;fill-opacity:1;stroke:#c4b800;stroke-width:0.14547039;stroke-dasharray:none;stroke-opacity:1"
     id="path3-0-03"
     inkscape:flatsided="true"
     sodipodi:sides="6"
     sodipodi:cx="11.18644"
     sodipodi:cy="8.3389826"
     sodipodi:r1="0.92606008"
     sodipodi:r2="0.8308543"
     sodipodi:arg1="0.53819603"
     sodipodi:arg2="1.0617948"
     inkscape:rounded="0"
     inkscape:randomized="0"
     d="M 11.981588,8.8136698 11.172923,9.264944 10.377776,8.7902568 10.391293,7.8642954 11.199958,7.4130212 11.995105,7.8877083 Z"
     transform="matrix(1.8942011,0,0,1.3184537,-4.2046702,-3.2904705)" />
  <path
     sodipodi:type="star"
     style="fill:none;fill-opacity:1;stroke:#c4b800;stroke-width:0.15496213;stroke-dasharray:none;stroke-opacity:1"
     id="path3-0-4"
     inkscape:flatsided="true"
     sodipodi:sides="6"
     sodipodi:cx="11.18644"
     sodipodi:cy="8.3389826"
     sodipodi:r1="0.92606008"
     sodipodi:r2="0.8308543"
     sodipodi:arg1="0.53819603"
     sodipodi:arg2="1.0617948"
     inkscape:rounded="0"
     inkscape:randomized="0"
     d="M 11.981588,8.8136698 11.172923,9.264944 10.377776,8.7902568 10.391293,7.8642954 11.199958,7.4130212 11.995105,7.8877083 Z"
     transform="matrix(1.8942011,0,0,1.3184537,-14.842866,-1.6293666)" />
  <path
     sodipodi:type="star"
     style="fill:none;fill-opacity:1;stroke:#c4b800;stroke-width:0.14547039;stroke-dasharray:none;stroke-opacity:1"
     id="path3-0-88"
     inkscape:flatsided="true"
     sodipodi:sides="6"
     sodipodi:cx="11.18644"
     sodipodi:cy="8.3389826"
     sodipodi:r1="0.92606008"
     sodipodi:r2="0.8308543"
     sodipodi:arg1="0.53819603"
     sodipodi:arg2="1.0617948"
     inkscape:rounded="0"
     inkscape:randomized="0"
     d="M 11.981588,8.8136698 11.172923,9.264944 10.377776,8.7902568 10.391293,7.8642954 11.199958,7.4130212 11.995105,7.8877083 Z"
     transform="matrix(1.8942011,0,0,1.3184537,-2.7524503,-1.4475453)" />
  <path
     sodipodi:type="star"
     style="fill:none;fill-opacity:1;stroke:#c4b800;stroke-width:0.14547039;stroke-dasharray:none;stroke-opacity:1"
     id="path3-0-41"
     inkscape:flatsided="true"
     sodipodi:sides="6"
     sodipodi:cx="11.18644"
     sodipodi:cy="8.3389826"
     sodipodi:r1="0.92606008"
     sodipodi:r2="0.8308543"
     sodipodi:arg1="0.53819603"
     sodipodi:arg2="1.0617948"
     inkscape:rounded="0"
     inkscape:randomized="0"
     d="M 11.981588,8.8136698 11.172923,9.264944 10.377776,8.7902568 10.391293,7.8642954 11.199958,7.4130212 11.995105,7.8877083 Z"
     transform="matrix(1.8942011,0,0,1.3184537,-8.9812519,2.1688076)" />
  <path
     sodipodi:type="star"
     style="fill:none;fill-opacity:1;stroke:#c4b800;stroke-width:0.14547039;stroke-dasharray:none;stroke-opacity:1"
     id="path3-0-52"
     inkscape:flatsided="true"
     sodipodi:sides="6"
     sodipodi:cx="11.18644"
     sodipodi:cy="8.3389826"
     sodipodi:r1="0.92606008"
     sodipodi:r2="0.8308543"
     sodipodi:arg1="0.53819603"
     sodipodi:arg2="1.0617948"
     inkscape:rounded="0"
     inkscape:randomized="0"
     d="M 11.981588,8.8136698 11.172923,9.264944 10.377776,8.7902568 10.391293,7.8642954 11.199958,7.4130212 11.995105,7.8877083 Z"
     transform="matrix(1.8942011,0,0,1.3184537,-5.9676813,2.1637269)" />
  <path
     style="fill:#492929;fill-opacity:1;stroke:#000000;stroke-width:0.191288;stroke-dasharray:none;stroke-opacity:1"
     d="M 21.820115,19.392337 5.192272,19.268545 Z"
     id="path4" />
</svg>
