<svg id="FINAL" xmlns="http://www.w3.org/2000/svg" width="428.1" height="500" viewBox="0 0 428.1 500"><defs><style>.cls-1{fill:#eac300}.cls-2{fill:#fdf977}</style></defs><path class="cls-1" d="M0 121L214 0l214 125v252L214 500 0 374V121z"/><path class="cls-2" d="M8 126L214 10l206 120v242L214 490 8 369V126z"/><path class="cls-1" d="M28 138L214 33l187 108v219L214 466 28 357V138z"/><path fill="#af9559" d="M60 158l154-85 162 93 3 184-157 89-154-88-8-13V158z"/><path class="cls-1" d="M38 146L217 44l184 106v210L214 466 36 362l2-216z"/><path class="cls-1" d="M60 158l154-85 162 93v183l-155 86-153-84-8-13V158z"/><path fill="#ffe65f" d="M60 158l154-85 154 88v179l-152 86-156-88V158z"/><path class="cls-2" d="M60 158l154-85 154 88v179l-152 86-156-88V158z"/><path d="M284 208c-3-2-24-16-50-8-17 6-36 21-37 43-1 25 22 45 43 50 19 4 35-3 41-6l26 44c-8 6-35 27-77 27s-70-21-77-27c-5-4-43-32-45-84-2-56 41-89 45-91a133 133 0 01162 7z" stroke="#e8c949" stroke-width="14" fill="none" stroke-miterlimit="10"/><path class="cls-1" d="M320 208c-3-2-24-16-50-8-17 6-36 21-37 43-1 25 22 45 43 50 19 4 35-3 41-6l26 44c-8 6-36 27-77 27-42 0-70-21-77-27-5-4-43-32-45-84-2-56 41-89 45-91a133 133 0 01162 7z" transform="translate(-36)"/><path class="cls-1" d="M320 208c-3-2-24-16-50-8-17 6-39 22-40 43-3 35 20 53 45 60 18 5 39-4 45-7 8 15 14 20 22 35-7 6-35 27-76 27-42 0-62-20-70-26-14-15-37-27-41-74-4-49 23-78 32-87a126 126 0 01158 0l-25 37z" transform="translate(-36)"/><path d="M284 208c-3-2-24-16-50-8-17 6-36 21-37 43-1 25 22 45 43 50 19 4 35-3 41-6l26 44c-8 6-35 27-77 27s-70-21-77-27c-5-4-43-32-45-84-2-56 41-89 45-91a133 133 0 01162 7z" stroke="#fffeb4" stroke-width="7" fill="none" stroke-miterlimit="10"/></svg>